<mxfile host="app.diagrams.net" modified="2023-10-29T05:19:34.496Z" agent="Mozilla/5.0 (Windows NT 10.0; Win64; x64) AppleWebKit/537.36 (KHTML, like Gecko) Chrome/117.0.0.0 Safari/537.36" etag="KwKKDtEFcuW9_20FDfHa" version="22.0.8" type="github">
  <diagram name="第 1 页" id="Byz4K3ECz8F5BBLuq-Ha">
    <mxGraphModel dx="1050" dy="542" grid="1" gridSize="10" guides="1" tooltips="1" connect="1" arrows="1" fold="1" page="1" pageScale="1" pageWidth="827" pageHeight="1169" math="0" shadow="0">
      <root>
        <mxCell id="0" />
        <mxCell id="1" parent="0" />
        <mxCell id="4HskrNpRkXM2yCC21E8R-1" value="" style="ellipse;whiteSpace=wrap;html=1;" vertex="1" parent="1">
          <mxGeometry x="340" y="585" width="120" height="80" as="geometry" />
        </mxCell>
        <mxCell id="4HskrNpRkXM2yCC21E8R-2" value="创建账号" style="text;html=1;strokeColor=none;fillColor=none;align=center;verticalAlign=middle;whiteSpace=wrap;rounded=0;" vertex="1" parent="1">
          <mxGeometry x="370" y="670" width="60" height="30" as="geometry" />
        </mxCell>
        <mxCell id="4HskrNpRkXM2yCC21E8R-3" value="" style="ellipse;whiteSpace=wrap;html=1;" vertex="1" parent="1">
          <mxGeometry x="170" y="800" width="80" height="50" as="geometry" />
        </mxCell>
        <mxCell id="4HskrNpRkXM2yCC21E8R-4" value="" style="ellipse;whiteSpace=wrap;html=1;" vertex="1" parent="1">
          <mxGeometry x="300" y="840" width="80" height="50" as="geometry" />
        </mxCell>
        <mxCell id="4HskrNpRkXM2yCC21E8R-5" value="" style="ellipse;whiteSpace=wrap;html=1;" vertex="1" parent="1">
          <mxGeometry x="450" y="820" width="80" height="50" as="geometry" />
        </mxCell>
        <mxCell id="4HskrNpRkXM2yCC21E8R-6" value="" style="ellipse;whiteSpace=wrap;html=1;" vertex="1" parent="1">
          <mxGeometry x="570" y="820" width="80" height="50" as="geometry" />
        </mxCell>
        <mxCell id="4HskrNpRkXM2yCC21E8R-7" value="生成学生教师信息表" style="text;html=1;strokeColor=none;fillColor=none;align=center;verticalAlign=middle;whiteSpace=wrap;rounded=0;" vertex="1" parent="1">
          <mxGeometry x="170" y="860" width="60" height="30" as="geometry" />
        </mxCell>
        <mxCell id="4HskrNpRkXM2yCC21E8R-8" value="填写学生教师信息表" style="text;html=1;strokeColor=none;fillColor=none;align=center;verticalAlign=middle;whiteSpace=wrap;rounded=0;" vertex="1" parent="1">
          <mxGeometry x="310" y="900" width="60" height="30" as="geometry" />
        </mxCell>
        <mxCell id="4HskrNpRkXM2yCC21E8R-9" value="信息正确性校验" style="text;html=1;strokeColor=none;fillColor=none;align=center;verticalAlign=middle;whiteSpace=wrap;rounded=0;" vertex="1" parent="1">
          <mxGeometry x="470" y="890" width="60" height="30" as="geometry" />
        </mxCell>
        <mxCell id="4HskrNpRkXM2yCC21E8R-10" value="更新学生教师信息表" style="text;html=1;strokeColor=none;fillColor=none;align=center;verticalAlign=middle;whiteSpace=wrap;rounded=0;" vertex="1" parent="1">
          <mxGeometry x="590" y="890" width="60" height="30" as="geometry" />
        </mxCell>
        <mxCell id="4HskrNpRkXM2yCC21E8R-11" value="" style="endArrow=classic;html=1;rounded=0;" edge="1" parent="1">
          <mxGeometry width="50" height="50" relative="1" as="geometry">
            <mxPoint x="230" y="790" as="sourcePoint" />
            <mxPoint x="350" y="700" as="targetPoint" />
          </mxGeometry>
        </mxCell>
        <mxCell id="4HskrNpRkXM2yCC21E8R-12" value="" style="endArrow=classic;html=1;rounded=0;" edge="1" parent="1">
          <mxGeometry width="50" height="50" relative="1" as="geometry">
            <mxPoint x="330" y="830" as="sourcePoint" />
            <mxPoint x="370" y="710" as="targetPoint" />
          </mxGeometry>
        </mxCell>
        <mxCell id="4HskrNpRkXM2yCC21E8R-15" value="" style="endArrow=classic;html=1;rounded=0;" edge="1" parent="1">
          <mxGeometry width="50" height="50" relative="1" as="geometry">
            <mxPoint x="480" y="800" as="sourcePoint" />
            <mxPoint x="420" y="710" as="targetPoint" />
          </mxGeometry>
        </mxCell>
        <mxCell id="4HskrNpRkXM2yCC21E8R-16" value="" style="endArrow=classic;html=1;rounded=0;" edge="1" parent="1">
          <mxGeometry width="50" height="50" relative="1" as="geometry">
            <mxPoint x="610" y="810" as="sourcePoint" />
            <mxPoint x="460" y="690" as="targetPoint" />
          </mxGeometry>
        </mxCell>
      </root>
    </mxGraphModel>
  </diagram>
</mxfile>
